<?xml version="1.0"?>
<!DOCTYPE svg PUBLIC "-//W3C//DTD SVG 1.1//EN" "http://www.w3.org/Graphics/SVG/1.1/DTD/svg11.dtd">
<svg width="119.0mm" height="119.0mm" viewBox="0 0 119.0 119.0" xmlns="http://www.w3.org/2000/svg" version="1.1">
<g id="Sketch" transform="translate(59.500000,59.500000) scale(1,-1)">
<path id="Sketch_w0000"  d="M -52.44077682344544 58.333333333333336 L -14.225889843221232 58.333333333333336 L -8.33333333333334 52.44077682344544 L -8.33333333333334 14.225889843221234 L -14.225889843221232 8.333333333333334 L -52.44077682344544 8.333333333333334 L -58.333333333333336 14.22588984322123 L -58.333333333333336 52.44077682344544 L -50.00000000000001 44.10744349011211 L -50.00000000000001 22.559223176554568 L -44.10744349011211 16.66666666666667 L -22.559223176554568 16.66666666666667 L -16.66666666666667 22.559223176554568 L -16.66666666666667 44.10744349011211 L -22.559223176554568 50.00000000000001 L -44.10744349011211 50.00000000000001 L -52.44077682344544 58.333333333333336 " stroke="#000000" stroke-width="0.35 px" style="stroke-width:0.35;stroke-miterlimit:4;stroke-dasharray:none;stroke-linecap:square;fill:none;fill-opacity:1;fill-rule: evenodd"/>
<path id="Sketch_w0001"  d="M 49.99999999999997 18.75 L 50.0 8.333333333333334 L 58.333333333333336 8.333333333333334 L 58.333333333333336 40.95177968644245 L 40.95177968644245 58.333333333333336 L 25.71488698022422 58.333333333333336 L 8.333333333333336 40.95177968644245 L 8.333333333333336 8.333333333333336 L 16.666666666666668 8.333333333333334 L 16.666666666666668 37.5 L 29.16666666666667 50.00000000000001 L 37.50000000000001 50.00000000000001 L 50.00000000000001 37.5 L 50.00000000000001 27.083333333333336 L 25.000000000000004 27.083333333333336 L 25.000000000000004 18.75 L 49.99999999999997 18.75 " stroke="#000000" stroke-width="0.35 px" style="stroke-width:0.35;stroke-miterlimit:4;stroke-dasharray:none;stroke-linecap:square;fill:none;fill-opacity:1;fill-rule: evenodd"/>
<path id="Sketch_w0002"  d="M -36.13155364689088 -58.333333333333336 L -51.36844635310912 -58.333333333333336 L -58.333333333333336 -51.36844635310912 L -58.333333333333336 -8.333333333333336 L -50.00000000000001 -8.333333333333337 L -50.00000000000001 -47.91666666666667 L -47.91666666666667 -50.0 L -39.583333333333336 -50.0 L -37.50000000000001 -47.91666666666667 L -37.50000000000001 -25.000000000000004 L -29.16666666666667 -25.000000000000004 L -29.16666666666667 -47.91666666666667 L -27.083333333333336 -50.0 L -18.750000000000004 -50.0 L -16.666666666666668 -47.91666666666667 L -16.666666666666668 -8.333333333333336 L -8.33333333333334 -8.333333333333337 L -8.33333333333334 -51.36844635310912 L -15.29822031355755 -58.333333333333336 L -30.535113019775793 -58.333333333333336 L -36.13155364689088 -58.333333333333336 " stroke="#000000" stroke-width="0.35 px" style="stroke-width:0.35;stroke-miterlimit:4;stroke-dasharray:none;stroke-linecap:square;fill:none;fill-opacity:1;fill-rule: evenodd"/>
<path id="Sketch_w0003"  d="M 14.22588984322123 -16.66666666666668 L 8.333333333333336 -22.559223176554575 L 8.333333333333336 -58.333333333333336 L 16.666666666666668 -58.333333333333336 L 16.666666666666668 -47.55922317655458 L 22.559223176554564 -41.666666666666686 L 52.44077682344544 -41.666666666666686 L 58.333333333333336 -35.77411015677879 L 58.333333333333336 -14.225889843221232 L 52.44077682344545 -8.333333333333336 L 22.559223176554568 -8.333333333333336 L 30.892556509887893 -16.666666666666668 L 45.11844635310912 -16.666666666666668 L 50.0 -21.54822031355755 L 50.0 -28.451779686442475 L 45.11844635310912 -33.33333333333336 L 30.892556509887896 -33.33333333333336 L 14.22588984322123 -16.66666666666668 " stroke="#000000" stroke-width="0.35 px" style="stroke-width:0.35;stroke-miterlimit:4;stroke-dasharray:none;stroke-linecap:square;fill:none;fill-opacity:1;fill-rule: evenodd"/>
<title>b'Sketch'</title>
</g>
</svg>