<?xml version="1.0"?>
<!DOCTYPE svg PUBLIC "-//W3C//DTD SVG 1.1//EN" "http://www.w3.org/Graphics/SVG/1.1/DTD/svg11.dtd">
<svg width="119.0mm" height="169.0mm" viewBox="0 0 119.0 169.0" xmlns="http://www.w3.org/2000/svg" version="1.1">
<g id="Sketch" transform="translate(59.500000,84.500000) scale(1,-1)">
<path id="Sketch_w0000"  d="M -52.44077682344544 83.33333333333333 L -14.225889843221232 83.33333333333333 L -8.333333333333334 77.44077682344543 L -8.333333333333334 14.225889843221232 L -14.22588984322123 8.333333333333336 L -52.44077682344544 8.333333333333336 L -58.333333333333336 14.225889843221232 L -58.333333333333336 77.44077682344543 L -52.44077682344544 83.33333333333333 " stroke="#000000" stroke-width="0.35 px" style="stroke-width:0.35;stroke-miterlimit:4;stroke-dasharray:none;stroke-linecap:square;fill:none;fill-opacity:1;fill-rule: evenodd"/>
<path id="Sketch_w0001"  d="M 8.333333333333332 8.333333333333336 L 16.666666666666668 8.333333333333336 L 16.666666666666668 62.50000000000002 L 29.166666666666682 75.00000000000001 L 37.500000000000014 75.00000000000001 L 50.0 62.50000000000002 L 50.0 8.333333333333336 L 58.333333333333336 8.333333333333336 L 58.333333333333336 65.95177968644249 L 40.951779686442485 83.33333333333334 L 25.714886980224183 83.33333333333334 L 8.333333333333332 65.95177968644249 L 8.333333333333332 8.333333333333336 " stroke="#000000" stroke-width="0.35 px" style="stroke-width:0.35;stroke-miterlimit:4;stroke-dasharray:none;stroke-linecap:square;fill:none;fill-opacity:1;fill-rule: evenodd"/>
<path id="Sketch_w0002"  d="M -36.13155364689092 -83.33333333333333 L -51.36844635310905 -83.33333333333333 L -58.333333333333336 -76.36844635310905 L -58.333333333333336 -8.33333333333334 L -50.0 -8.333333333333336 L -50.0 -72.91666666666663 L -47.91666666666667 -74.99999999999999 L -39.583333333333336 -74.99999999999999 L -37.5 -72.91666666666663 L -37.5 -33.333333333333336 L -29.166666666666668 -33.333333333333336 L -29.166666666666668 -72.91666666666663 L -27.083333333333336 -74.99999999999996 L -18.75 -74.99999999999996 L -16.666666666666668 -72.91666666666663 L -16.666666666666668 -8.33333333333334 L -8.333333333333334 -8.333333333333336 L -8.333333333333334 -76.36844635310905 L -15.298220313557614 -83.33333333333333 L -30.535113019775746 -83.33333333333333 L -36.13155364689092 -83.33333333333333 " stroke="#000000" stroke-width="0.35 px" style="stroke-width:0.35;stroke-miterlimit:4;stroke-dasharray:none;stroke-linecap:square;fill:none;fill-opacity:1;fill-rule: evenodd"/>
<path id="Sketch_w0003"  d="M 8.333333333333332 -83.33333333333333 L 16.666666666666668 -83.33333333333333 L 16.666666666666668 -51.725889843221225 L 22.559223176554564 -45.83333333333333 L 52.44077682344543 -45.83333333333333 L 58.33333333333334 -39.94077682344543 L 58.33333333333334 -14.225889843221232 L 52.44077682344544 -8.333333333333334 L 22.559223176554564 -8.333333333333334 L 8.333333333333332 -22.559223176554564 L 8.333333333333332 -83.33333333333333 " stroke="#000000" stroke-width="0.35 px" style="stroke-width:0.35;stroke-miterlimit:4;stroke-dasharray:none;stroke-linecap:square;fill:none;fill-opacity:1;fill-rule: evenodd"/>
<title>b'Sketch'</title>
</g>
</svg>